<svg xmlns="http://www.w3.org/2000/svg"  viewBox="0 0 32 32" width="32px" height="32px"><path d="M25.958,10.719c-0.036-0.27-0.123-0.533-0.259-0.768c-1.52-2.623-3.651-4.822-5.9-6.384	c-0.255-0.177-0.549-0.292-0.857-0.338C15.584,2.732,12.226,3.086,8.867,4.29c-1.009,0.362-1.8,1.192-2.048,2.235	c-1.504,6.317-1.504,12.633,0,18.95c0.249,1.045,1.044,1.875,2.055,2.238c4.738,1.697,9.475,1.701,14.213,0.014	c1.036-0.369,1.849-1.221,2.102-2.291C26.353,20.53,26.609,15.624,25.958,10.719z M10.042,15.529c0.204-0.513,0.787-0.763,1.3-0.557	c1.826,0.731,3.805,0.893,5.725,0.473c0.535-0.123,1.072,0.223,1.191,0.762c0.119,0.539-0.223,1.073-0.762,1.191	c-0.838,0.184-1.686,0.276-2.53,0.276c-1.487,0-2.964-0.284-4.367-0.845C10.086,16.624,9.837,16.042,10.042,15.529z M21.354,21.956	c-1.751,0.539-3.552,0.808-5.354,0.808s-3.603-0.269-5.354-0.808c-0.528-0.162-0.824-0.722-0.662-1.25	c0.162-0.528,0.723-0.826,1.25-0.662c3.118,0.959,6.413,0.959,9.531,0c0.524-0.164,1.087,0.133,1.25,0.662	C22.178,21.234,21.881,21.794,21.354,21.956z M23.682,11.175c-1.355,0.104-2.709-0.046-4.064-0.478	c-0.225-0.072-0.409-0.258-0.48-0.484c-0.462-1.479-0.612-2.959-0.459-4.438c0.028-0.272,0.248-0.37,0.47-0.211	c1.906,1.371,3.568,3.171,4.764,5.161C24.046,10.947,23.938,11.155,23.682,11.175z"/></svg>