<svg xmlns="http://www.w3.org/2000/svg"  viewBox="0 0 32 32" width="32px" height="32px"><path d="M 16.001953 1.8027344 C 14.608203 1.8027344 13.213219 2.0280156 11.886719 2.4785156 C 10.770719 2.8575156 9.9696562 3.8460938 9.8476562 4.9960938 C 9.8239538 5.2166794 9.8241517 5.4387472 9.8261719 5.6621094 C 8.6986975 5.5364272 7.572107 5.3884209 6.4492188 5.1933594 C 5.8992188 5.1033594 5.3879687 5.4648125 5.2929688 6.0078125 C 5.1989687 6.5518125 5.5624687 7.0690625 6.1054688 7.1640625 C 9.3754687 7.7320625 12.666984 8.015625 15.958984 8.015625 C 19.278984 8.015625 22.599484 7.7264375 25.896484 7.1484375 C 26.440484 7.0534375 26.803031 6.5342344 26.707031 5.9902344 C 26.612031 5.4472344 26.101781 5.0826875 25.550781 5.1796875 C 24.426955 5.3767473 23.298469 5.5249267 22.169922 5.6523438 C 22.171405 5.4329498 22.177409 5.212385 22.154297 4.9960938 C 22.031297 3.8450938 21.231234 2.8575156 20.115234 2.4785156 C 18.788734 2.0280156 17.395703 1.8027344 16.001953 1.8027344 z M 16.001953 3.8007812 C 17.177578 3.8007812 18.352203 3.9905937 19.470703 4.3710938 C 19.851703 4.5000937 20.123062 4.8280313 20.164062 5.2070312 C 20.185995 5.4148959 20.190836 5.6280323 20.177734 5.8457031 C 17.396737 6.0584609 14.609514 6.060017 11.828125 5.8515625 C 11.814713 5.631895 11.81537 5.4168533 11.837891 5.2070312 C 11.877891 4.8280313 12.15025 4.5000937 12.53125 4.3710938 C 13.65025 3.9905937 14.826328 3.8007812 16.001953 3.8007812 z M 24.650391 9.3613281 C 21.768391 9.7873281 18.853984 10.015625 15.958984 10.015625 C 13.091984 10.015625 10.202703 9.7920469 7.3457031 9.3730469 C 7.0797031 9.3340469 6.8282969 9.5123437 6.7792969 9.7773438 C 5.9252969 14.455344 5.8464531 19.209891 6.5644531 23.962891 C 7.0274531 26.684891 9.6633594 28.984375 12.318359 28.984375 L 19.679688 28.984375 C 22.335687 28.984375 24.9715 26.684359 25.4375 23.943359 C 26.1535 19.202359 26.07475 14.446625 25.21875 9.765625 C 25.17075 9.500625 24.917391 9.3213281 24.650391 9.3613281 z"/></svg>